<?xml version="1.0" encoding="iso-8859-1"?>
<!-- Uploaded to: SVG Repo, www.svgrepo.com, Generator: SVG Repo Mixer Tools -->
<svg fill="#000000" height="800px" width="800px" version="1.1" id="Layer_1" xmlns="http://www.w3.org/2000/svg" xmlns:xlink="http://www.w3.org/1999/xlink" 
	 viewBox="0 0 297.001 297.001" xml:space="preserve">
<g>
	<g>
		<g>
			<path d="M0.664,124.69l89.058,0.001c6.75-16.602,20.325-29.725,37.235-35.85V0.319C62.358,9.669,10.981,60.404,0.664,124.69z"/>
			<path d="M88.071,167.777H0c8.575,66.423,60.846,119.336,126.957,128.904v-88.52C108.534,201.488,94.062,186.513,88.071,167.777z"
				/>
			<path d="M207.28,124.691h89.058C286.022,60.404,234.644,9.669,170.045,0.319v88.521
				C186.955,94.966,200.53,108.089,207.28,124.691z"/>
			<path d="M208.93,167.777c-5.99,18.736-20.463,33.711-38.886,40.384v88.52c66.112-9.568,118.382-62.481,126.957-128.904H208.93z"
				/>
			<path d="M272.307,256.467c-4.916,5.63-10.209,10.923-15.84,15.839l9.042,9.041c2.187,2.187,5.054,3.28,7.92,3.28
				s5.733-1.094,7.92-3.28c4.374-4.375,4.374-11.466,0-15.839L272.307,256.467z"/>
			<path d="M272.307,40.534l9.04-9.041c4.374-4.375,4.374-11.466,0-15.839c-4.375-4.375-11.467-4.373-15.839,0l-9.04,9.041
				C262.098,29.61,267.391,34.904,272.307,40.534z"/>
			<path d="M24.695,256.467l-9.041,9.041c-4.374,4.374-4.374,11.465,0,15.839c2.187,2.187,5.053,3.28,7.92,3.28
				c2.866,0,5.732-1.093,7.92-3.28l9.042-9.041C34.904,267.391,29.611,262.097,24.695,256.467z"/>
			<path d="M24.695,40.534c4.916-5.63,10.209-10.923,15.839-15.839l-9.041-9.041c-4.375-4.375-11.465-4.375-15.839,0
				c-4.374,4.374-4.374,11.466,0,15.839L24.695,40.534z"/>
		</g>
	</g>
</g>
</svg>